<svg xmlns="http://www.w3.org/2000/svg" xmlns:xlink="http://www.w3.org/1999/xlink" style="vertical-align:-1.755ex" width="50.221ex" height="5.134ex" viewBox="0 -1455.1 21622.7 2210.6"><defs><path id="k" stroke-width="1" d="M58-216q-14 0-24 8t-11 22q0 10 73 302t77 298q13 28 46 28 12-1 20-7t10-12 2-10q0-12-31-134t-33-137q-2-11-2-35v-8q0-73 67-73 9 0 18 1t17 4 15 7 13 7 12 10 11 10 10 12 8 11 9 12l7 10 36 143q36 142 40 151 13 27 43 27 13 0 21-7t11-12 2-10L449 84q-1-5-1-16 0-25 7-33t21-9q9 1 20 9 21 20 41 96 6 20 10 21 2 1 10 1h4q19 0 19-9 0-6-5-27t-20-54-32-50Q510 0 491-8q-8-2-24-2-21 0-38 6t-27 15-17 18-9 15-2 7l-6-6q-6-6-18-15t-26-18-36-16-42-7q-47 0-93 23l-24-97q-21-82-25-95t-12-22q-16-14-34-14z"/><path id="a" stroke-width="1" d="M48 1Q31 1 31 11q0 2 3 14 4 16 8 18t23 3q27 0 60 3 14 3 19 12 2 5 71 281t70 280q0 7-4 7-8 3-53 5h-31q-6 6-6 8t2 17q4 17 10 21h539q7-4 7-11 0-5-13-112t-14-110q-2-7-20-7h-12q-7 5-7 13 0 1 3 24t3 53q0 30-7 49t-19 31-37 16-51 7-72 1h-23q-82-1-87-3t-7-8q-1-1-34-131l-32-129h78q20 0 28 1t22 3 24 7 17 12q13 12 22 33t13 38 5 18q3 5 19 5h12q7-5 7-10 0-3-31-131t-34-132q-2-7-20-7h-12q-7 6-7 12 0 3 5 22t5 40q0 29-20 36t-89 7h-55l-32-127Q245 66 245 60q0-14 89-14h25q6-6 6-7t-2-20q-4-13-10-19h-17q-41 2-151 2H86Q52 2 48 1z"/><path id="c" stroke-width="1" d="M52 289q7 42 54 97t116 56q35 0 64-18t43-45q42 63 101 63 37 0 64-22t28-59q0-29-14-47t-27-22-23-4q-19 0-31 11t-12 29q0 46 50 63-11 13-40 13-13 0-19-2-38-16-56-66-60-221-60-258 0-28 16-40t35-12q37 0 73 33t49 81q3 10 6 11t16 2h4q15 0 15-8 0-1-2-11-16-57-62-101T333-11q-70 0-106 63-41-62-94-62h-6q-49 0-70 26T35 71q0 32 19 52t45 20q43 0 43-42 0-20-12-35t-23-20-13-5l-3-1q0-1 6-4t16-7 19-3q36 0 62 45 9 16 23 68t28 108 16 66q5 27 5 39 0 28-15 40t-34 12q-40 0-75-32t-49-82q-2-9-5-10t-16-2H58q-6 6-6 11z"/><path id="d" stroke-width="1" d="M60 749l4 1h22l28-24q94-85 137-212t43-264q0-68-10-131T261 12t-37-88-38-67-41-51-32-33-23-19l-4-4H63q-3 0-5 3t-3 9q1 1 11 13Q221-64 221 250T66 725q-10 12-11 13 0 8 5 11z"/><path id="e" stroke-width="1" d="M56 347q0 13 14 20h637q15-8 15-20 0-11-14-19l-318-1H72q-16 5-16 20zm0-194q0 15 16 20h636q14-10 14-20 0-13-15-20H70q-14 7-14 20z"/><path id="g" stroke-width="1" d="M213 578l-13-5q-14-5-40-10t-58-7H83v46h19q47 2 87 15t56 24 28 22q2 3 12 3 9 0 17-6V361l1-300q7-7 12-9t24-4 62-2h26V0h-11q-21 3-159 3-136 0-157-3H88v46h64q16 0 25 1t16 3 8 2 6 5 6 4v517z"/><path id="h" stroke-width="1" d="M56 237v13l14 20h299v150l1 150q10 13 19 13 13 0 20-15V270h298q15-8 15-20t-15-20H409V-68q-8-14-18-14h-4q-12 0-18 14v298H70q-14 7-14 20z"/><path id="i" stroke-width="1" d="M39 168q0 57 19 104t49 78 67 52 70 31 63 9h3q45 0 78-22t33-65q0-90-111-118-49-13-134-14-37 0-38-2 0-2-6-35t-7-58q0-47 21-74t63-28 93 19 92 66q9 10 12 10 4 0 13-9t10-14-9-16-30-27-46-31-63-25-76-10q-79 0-122 53T39 168zm334 185q-6 52-68 52-33 0-61-14t-45-34-29-41-16-36-5-19q0-1 20-1 113 0 158 24t46 69z"/><path id="j" stroke-width="1" d="M84 237v13l14 20h581q15-8 15-20t-15-20H98q-14 7-14 20z"/><path id="b" stroke-width="1" d="M94 250q0 69 10 131t23 107 37 88 38 67 42 52 33 34 25 21h17q14 0 14-9 0-3-17-21t-41-53-49-86-42-138-17-193 17-192 41-139 49-86 42-53 17-21q0-9-15-9h-16l-28 24q-94 85-137 212T94 250z"/><path id="l" stroke-width="1" d="M423 750q9 0 15-6t6-14q0-5-173-482T92-240q-7-10-17-10-7 0-13 5t-6 14q0 10 174 488t177 483q4 10 16 10z"/><path id="m" stroke-width="1" d="M184-11q-68 0-110 45T31 147q0 100 73 186t170 97q1 1 140 1h138q1-1 3-2t4-2 3-2 3-3 2-2 2-4 1-4 1-5 1-6q0-44-65-44h-17q-10 0-14 1h-60l5-10q18-38 18-85 0-110-80-192T184-11zm177 289q0 80-85 80-124 0-161-174-1-4-1-6-8-37-8-61 0-50 25-70t57-21q54 0 99 47 29 30 47 80t22 80 5 45z"/><path id="f" stroke-width="1" d="M180 96v154l25 291 61 229 87 174 91 125 83 81h28q6-6 6-9 0-4-16-21t-41-48-57-77-61-117-56-157-42-208-16-262q0-118 8-195 13-143 46-265t73-196 76-126 61-78 25-31q0-3-6-9h-28q-44 37-84 81t-90 125-87 173-61 229z"/><path id="n" stroke-width="1" d="M35 1138q0 12 16 12h18q44-37 84-81t90-125 87-173 61-230 25-291-25-290-61-230-87-173-91-125-83-81H56q-13 0-17 2t-4 10q30 30 75 89Q283-316 316 56q8 77 8 195 0 117-8 194-38 432-268 678-12 14-13 15z"/><path id="o" stroke-width="1" d="M78 35v25l16 43 43 18q28 0 50-25t23-88q0-35-9-68t-21-57-26-41-24-27-13-9q-4 0-13 9t-9 13q0 4 11 16t25 30 26 50 16 73V9l-1-1q-2-1-5-2t-6-3-9-2-12-1q-27 0-44 17z"/><path id="p" stroke-width="1" d="M55 217q0 88 56 156t143 69q88 0 165-61 38-31 74-78l14-19 7 10q104 148 233 148 86 0 141-68t56-160q0-86-55-155T743-11q-86 0-163 61-38 31-74 78l-14 19-7-10Q381-11 252-11q-86 0-141 68T55 217zm852 0q0 68-38 124t-108 56q-21 0-41-5t-38-14-34-19-29-24-25-25-20-25-15-22-11-17l-5-8 31-40q31-40 48-60t42-44 50-33 51-10q62 0 102 49t40 117zm-815-3q0-69 39-125t108-56q118 0 217 160l-31 40q-61 79-91 104-49 43-101 43-62 0-101-49T92 214z"/><path id="q" stroke-width="1" d="M694-11v-8l-6-14-10-7q-7 0-154 69T234 166L90 235q-7 5-7 15 0 11 8 16 573 274 587 274 3 0 9-6t7-15-7-14q-1-1-270-129L151 250l266-126Q686-4 687-5q7-6 7-14z"/><path id="r" stroke-width="1" d="M79 43q-6 0-27 6T30 61q0 7 55 232t61 235q15 32 52 32 20 0 42-15t22-44q0-5-2-15-1-7-87-223T84 45t-5-2z"/></defs><g fill="currentColor" stroke="currentColor" stroke-width="0" transform="scale(1 -1)"><use xlink:href="#a"/><g transform="translate(916)"><use xlink:href="#b"/><use x="389" xlink:href="#c"/><use x="962" xlink:href="#d"/></g><use x="2545" xlink:href="#e"/><g transform="translate(3601)"><use xlink:href="#f"/><use x="597" xlink:href="#g"/><use x="1320" xlink:href="#h"/><g transform="translate(2320)"><use xlink:href="#i"/><g transform="translate(466 412)"><use transform="scale(.707)" xlink:href="#j"/><g transform="translate(550) scale(.707)"><use xlink:href="#b"/><use x="389" xlink:href="#c"/><use x="962" xlink:href="#j"/><use x="1740" xlink:href="#k"/><use x="2344" xlink:href="#d"/></g><use x="3512" transform="scale(.707)" xlink:href="#l"/><use x="4012" transform="scale(.707)" xlink:href="#m"/></g></g><use x="6129" y="-1" xlink:href="#n"/><g transform="matrix(.707 0 0 .707 6727 877)"><use xlink:href="#j"/><use x="778" xlink:href="#g"/></g></g><use x="11333" xlink:href="#o"/><use x="11778" xlink:href="#j"/><use x="12556" xlink:href="#p"/><use x="13835" xlink:href="#q"/><use x="14891" xlink:href="#c"/><use x="15741" xlink:href="#q"/><use x="16797" xlink:href="#p"/><use x="20048" xlink:href="#b"/><g transform="translate(20437)"><use xlink:href="#g"/><use x="707" y="583" transform="scale(.707)" xlink:href="#r"/></g><use x="21233" xlink:href="#d"/></g></svg>